<svg width="24" height="24" viewBox="0 0 24 24" fill="none" xmlns="http://www.w3.org/2000/svg">
<path fill-rule="evenodd" clip-rule="evenodd" d="M8.36635 8.50897C8.70731 8.46299 9.04797 8.59551 9.26822 8.85982L11.571 11.6231L14.7747 12.5385C15.3058 12.6902 15.6132 13.2437 15.4615 13.7747C15.3098 14.3058 14.7563 14.6132 14.2253 14.4615L10.7253 13.4615C10.5323 13.4064 10.3603 13.2944 10.2318 13.1402L8.75134 11.3637L6.91037 15.4138C6.68183 15.9166 6.08898 16.1389 5.5862 15.9104C5.08342 15.6818 4.8611 15.089 5.08963 14.5862L7.58963 9.0862C7.732 8.77299 8.02538 8.55496 8.36635 8.50897Z" fill="black"/>
<path fill-rule="evenodd" clip-rule="evenodd" d="M12 5C12 3.89543 11.1046 3 10 3C8.89543 3 8 3.89543 8 5C8 6.10457 8.89543 7 10 7C11.1046 7 12 6.10457 12 5Z" fill="black"/>
<path d="M7 4C7 4.55228 7.44772 5 8 5C8.55228 5 9 4.55228 9 4C9 3.44772 8.55228 3 8 3C7.44772 3 7 3.44772 7 4Z" fill="black"/>
<path fill-rule="evenodd" clip-rule="evenodd" d="M20 16C20 14.8954 19.1046 14 18 14C16.8954 14 16 14.8954 16 16C16 17.1046 16.8954 18 18 18C19.1046 18 20 17.1046 20 16Z" fill="black"/>
<path fill-rule="evenodd" clip-rule="evenodd" d="M2 18C2 17.4477 2.44772 17 3 17H14C14.1974 17 14.3904 17.0584 14.5547 17.1679L17.3028 19H21C21.5523 19 22 19.4477 22 20C22 20.5523 21.5523 21 21 21H17C16.8026 21 16.6096 20.9416 16.4453 20.8321L13.6972 19H3C2.44772 19 2 18.5523 2 18Z" fill="black"/>
</svg>
